<?xml version="1.0" encoding="utf-8"?>
<!-- Generator: Adobe Illustrator 22.1.0, SVG Export Plug-In . SVG Version: 6.00 Build 0)  -->
<svg version="1.1" id="Layer_1" xmlns="http://www.w3.org/2000/svg" xmlns:xlink="http://www.w3.org/1999/xlink" x="0px" y="0px"
	 viewBox="0 0 565 520" style="enable-background:new 0 0 565 520;" xml:space="preserve">
<g>
	<path d="M309,137.9c1.6,0.5,1.8,0.5,1.9,0.6c16,16.8,38.7,20.8,58.5,30.2c6.1,2.9,10.6-1.2,14.3-5.4c2.9-3.4,5-7.4,7.5-11.1
		c1-1.4,2.3-2.7,3.5-4.2c9.2,15.1,22.5,25.8,33.3,38.6c1,1.1,1.6,2.5,3.3,5.1c3-4.9,5.2-8.1,7.1-11.5c1.9-3.4,4.5-6,8.3-4.6
		c2.1,0.8,3.9,3.6,4.9,5.9c5.4,12.5,10.3,25.3,15.8,37.7c6.2,13.9,12.3,27.7,14.4,42.9c0.3,2.3,1.4,4.4,2.3,7.1
		c1.2-1,1.8-1.3,1.9-1.6c2.4-10.1,4.7-20.3,1.5-30.5c-5.3-17.3-13.7-32.8-26.9-45.6c-5.7-5.5-9-14.5-9-22.5c0.3-0.1,0.7-0.3,0.9-0.1
		c8.1,6.6,16.1,13.4,24.2,19.9c10,8,14.1,19.5,18.1,31c8,22.9,8.1,46.8,8.4,70.6c0.2,12.1,0.2,12.1-11.8,12.1
		c-153.1,0-306.3-0.1-459.4,0c-4.9,0-6.2-1.5-6.2-6.2c0.2-24.3,0.1-48.7,0-73c0-3.8,0.8-6.7,4.4-8.7c18.9-10.8,37.8-21.8,56.7-32.8
		c0.5-0.3,1.2-0.3,3.3-0.9c-0.9,4.9-0.7,9.3-2.4,12.9c-11.9,25.2-15.6,51.8-14.5,79.3c0,0.9,0.3,1.8,1.3,2.7
		c1.2-5.5,2.2-11,3.7-16.4c4.2-16.1,11.7-30.8,20.4-44.9c2.1-3.3,4.2-6.6,0.8-10.4c-0.5-0.5-0.4-1.9,0-2.7c3.8-7,12.8-7.9,18-1.9
		c2.9,3.3,4.7,6,0.7,10.6c-2.8,3.2-4.6,8.5-4.5,12.8c0.2,15.2-4.1,29.3-8.3,43.5c-0.2,0.6-0.2,1.3,0.5,2.4c0.8-1.2,1.7-2.4,2.4-3.7
		c15-28.2,30.2-56.4,45-84.8c2.6-5,3.8-10.7,5.9-16.8c2.4,2.6,4.8,5.5,7.4,8.1c3.8,3.9,7.8,7.7,11.8,11.4c2.3,2.1,4.3,1.8,5.8-1.3
		c3.5-6.9,9.1-11.6,16-15.3c16.5-8.7,33.7-16.2,47.6-29.8c-0.3,30.5,9.1,58.2,21.3,85.5c0.9-6.5,1.9-13,2.8-19.5
		c1.1-7.6,2.6-15.1,3.3-22.7c0.3-3.6-1-7.3-1.3-11c-0.1-1.5-0.2-3.4,0.6-4.4c6-8,10.2-8.1,16.9-0.4c2.3,2.6,1.5,4.9-0.3,7.6
		c-1.4,2.1-2.9,5.5-2.2,7.5c7.8,20.4,7,41.5,6.4,62.7c-0.3,10.8-0.7,21.6-1.1,32.5c0,1.1,0.1,2.1,0.9,3.3
		C314,232.9,316.3,186.2,309,137.9z M453.7,221.3c0.4-0.3,0.9-0.5,1.3-0.8c-3.9-9.8-7.8-19.7-11.7-29.5c-0.3-0.7-1-1.8-1.6-1.8
		c-1.6-0.1-3.8-0.5-4.8,0.4c-1.3,1.2-2.8,4.2-2.2,5.1C440.8,203.8,447.3,212.5,453.7,221.3z M333.7,235.6c4.3,2.3,26.8-0.5,29.7-3.7
		C358.7,230,337.1,232.7,333.7,235.6z M152,254.6c0-0.6-0.1-1.1-0.1-1.7c-4.9-2.8-15.1-1.8-17.4,2.5
		C140.6,255.1,146.3,254.8,152,254.6z"/>
	<path d="M122.4,128c-7.3,8-16.5,6-25.4,5.9c-2.7,0-5.4-0.4-8-0.1c-1.6,0.2-3.3,1.4-4.3,2.6c-0.5,0.6,0,3.2,0.6,3.4
		c1.4,0.5,3.2,0.4,4.6,0.1c4-1,8-2.4,12-3.3c2-0.4,4.1-0.1,6.1-0.1c0.1,0.5,0.1,1,0.2,1.6c-3.6,0.7-7.1,1.5-10.7,2.2
		c0,0.6,0.1,1.1,0.1,1.7c4.8,0.3,9.7,1,14.5,0.8c1.4-0.1,2.7-2.7,4-2.9c4.3-0.8,9.3-0.4,12.7-2.5c6.6-4.1,11.1-10.5,12.4-18.6
		c0.6-3.6-2.8-5.3-7-3.4c-2.3,1-4.3,2.6-6.5,3.7c-6.7,3.1-11.2,2.1-16-3.4c-6.3-7.1-7.6-7.2-13.8,0.1c-5.4,6.4-11.9,9.5-20.3,7.3
		c-7.1-1.9-11.6-8.6-10.9-15.9c0.6-6.3,6.4-10.9,13.8-11c16.3-0.4,32.6-0.8,49-1.2c8.2-0.2,10.7,1.8,13.6,9.5
		c0.7,1.8,2.8,3.2,5.3,5.8c0,2.8-5.6,8.2,2.8,12.2c0.1-8.8,2.2-17-1.4-25.2c-1.9-4.4-3.4-9-4.5-13.6c-0.8-3.6-2.4-5.4-6.1-6.2
		c-15.4-3.2-30.7-3.4-45.9,1.7c-5.3,1.8-11,2.5-16.7,3c-4.8,0.4-8.4,1.7-10.2,6.4c-0.2,0.6-1.1,0.9-1.7,1.3c-0.5-0.2-1-0.4-1.5-0.5
		c0.8-3.1,0.9-6.7,2.6-9.3c0.7-1.2,4.5-1.1,6.7-0.6c5.8,1.1,10.1-0.8,13.7-5.2c10.1-12.2,23.4-17,38.9-16.8
		c7.1,0.1,12.3,2.5,14.6,9.6c1.3,4.1,4.9,5.1,8.5,6c7.3,1.9,8.4,3.2,8.5,10.7c0.1,5.5-0.1,11-0.4,16.5c-0.2,2.8,0.2,4.2,3.4,4.8
		c1.5,0.3,3.5,2.4,3.8,4c1.1,5.5-1.3,9.9-5.1,13.9c-2.6,2.8-4.4,6.3-6.5,9.5c-1,1.5-2.1,3.1-2.5,4.8c-0.4,1.6-0.8,3.8-0.1,5
		c4.8,8.4,4.1,18.4-3.2,24.5c-9.7,8.1-20,15.4-30,23.1c-3.3,2.5-5.8,1.8-8.5-1.2c-11.3-12.5-22.2-25.3-29.3-40.9
		c-1.3-2.9-2.4-5.9-3.2-8.9c-2-8.2-1-9.4,7.3-9.8c12.1-0.5,24.3-1,36.4-1.5C120.1,127.8,121.2,128,122.4,128z M122.3,150.5
		c0-0.7-0.1-1.4-0.1-2.1c-7.7,0-15.4-0.1-23,0.1c-1.5,0-3,1.4-4.5,2.1c1.6,1.1,3.3,3.1,4.9,3.1c5-0.2,9.9-1.2,14.8-1.9
		C117,151.4,119.6,150.9,122.3,150.5z"/>
	<path d="M438.3,108.6c-2.7,0-4.7,0.3-6.6-0.1c-3.7-0.8-7.4-1.5-10.8-3c-5.2-2.4-9.9-5.5-16.3-4.8c-6.5,0.8-9.3-1.9-10.9-8.2
		c-0.6-2.6-1.7-5.1-2.5-7.6c-2.4-7.6,0.3-16.9,6.1-21.3c6.3-4.8,17.3-5.3,23.7-1.2c4.2,2.7,4.3,4.4,0.4,7.4
		c-2.2,1.7-4.6,3.3-6.6,5.3c-2,2-1.3,3.5,1.4,4.3c9.9,3,17.9-0.2,23.8-9.3c0.8-1.3,2.4-2.5,3.8-2.9c4.2-1.1,8.4-1.9,12.6-2.7
		c4.3-0.8,7,0.6,9.2,4.8c2.2,4.4,0.5,6.8-2.3,9.5c-1.8,1.7-3.3,3.7-6,6.6c4.7,1,8.5,1.9,12.2,2.6c6.9,1.4,8,3.3,5.4,10
		c-1.9,5-5.3,8.4-10.8,9.3c-1.6,0.3-3.1,0.6-5.7,1.1c1.5,0.9,2.1,1.4,2.8,1.6c2.1,0.6,6,0.6,6.2,1.6c0.7,3.3,1.2,7.2,0,10.2
		c-3.5,9.1-7.6,18-11.8,26.9c-0.9,1.8-2.5,4-4.3,4.5c-3.8,1.1-4.3,3.5-4.4,6.7c-0.1,3.5-0.5,6.9-0.9,11.2c-2.4-0.9-4.2-1.3-5.8-2.2
		c-9.9-5.5-19.7-11.2-29.6-16.8c-4.1-2.3-5.9-5.6-5.9-10.2c0-6.3-0.1-12.7,0-19c0.1-6,3.1-8.3,9.1-7.3c0.8,0.1,1.7,0.2,2.5,0.5
		C425.1,118.9,432.1,116.1,438.3,108.6z M441.7,86.4c0-0.7,0-1.5,0.1-2.2c-10.2-1.1-20.5-2.3-32.3-3.6c4.4,6.4,1.4,9.2-4.1,11.2
		c1.9,1.1,3.1,1.8,4.3,2.5c-0.4,1.2-0.7,2.2-1,3.3c3.7,0.6,5.9,0,7.1-3.9c1.1-3.9,4.7-5.4,8.6-5.7c4.1-0.3,8.3-0.4,12.4-0.8
		C438.4,87.2,440.1,86.7,441.7,86.4z M460.2,115c-3.3-4.5-6.1-8.7-9.3-12.7c-2.7-3.4-4.7-2.8-6.3,1.2c-1,2.5-2.6,4.8-3.9,7.3
		c-0.7,1.3-1.9,3.3-1.5,3.9c0.9,1.2,2.9,2.4,4.3,2.3C448.8,116.7,454,115.8,460.2,115z M458.2,122.2c-4.7,4.5-5.6,4.6-11.4,1.6
		c-2.5-1.3-5-2.7-7.6-3.7c-3.7-1.3-5,1.6-6,4.3c-1.2,3.1,1,4.8,3.4,4.8c8-0.2,15.9-0.9,24.6-1.4C459.7,125.1,459,123.7,458.2,122.2z
		 M419.5,66.4c-2.8-2.3-4.7-4.9-6.1-4.6c-1.8,0.3-4.1,2.6-4.6,4.4c-0.3,1.1,2.5,4.1,4,4.2C414.6,70.5,416.5,68.3,419.5,66.4z
		 M440.9,134.4c5.6,4.4,14.1,3.8,16.9,0C452.2,134.4,446.6,134.4,440.9,134.4z"/>
	<path d="M242.9,90.6c-2.8,4.2-5.6,3.5-8.6,1.6c-9-5.5-13.2-16-10-26.5c5.6-18.6,18.2-29.9,36.9-34.1c18.8-4.3,37.1-1.9,54.8,5.3
		c19.8,8.1,24.6,32.8,9.5,48.2c-1,1.1-2.2,2.1-3.3,3.1c-10.4,9.4-17.8,9-27.2-1.5c-1.8-2-3.2-4.2-5.1-6.7c-6.7,7.9-15.8,7.9-25,7.6
		c0,0.5,0,1,0,1.5c5,0.2,10,0.4,15.3,0.7c-4.9,3.9-19,3.4-23-0.6c-2.8-2.8-2.5-14.1,0.7-16.3c1-0.7,2.8-0.6,4.1-0.4
		c7.4,1,14.7,2.2,22,3.1c1,0.1,2.5-0.2,3.2-0.8c2.8-2.7,5.1-2.9,7.2,0.7c0.3,0.5,1.5,0.8,2.2,0.8c4.3,0.3,8.5,0.6,12.8,0.8
		c-1.7-12.6-11.9-21.9-24.7-22.9c-17.8-1.4-33.6,10.7-36.9,28.2c-0.5,2.9-1.6,4.1-4.5,4c-1.4-0.1-2.7,0.4-5.2,0.8
		C240.5,88.8,241.6,89.6,242.9,90.6z M301.7,88.7c5.1,3.7,11,4.2,13.9,1.8c0.8-0.7,1.7-1.9,1.6-2.8c-0.1-0.7-1.7-1.9-2.5-1.8
		C310.6,86.6,306.6,87.6,301.7,88.7z"/>
	<path d="M324.5,481.1c2.8-12,5.5-24,8.3-35.9c1.1-4.7,4.3-6.8,8.7-4.9c1.1,0.5,2,3.6,1.6,5.1c-2.9,12-6.2,23.8-9.3,35.7
		c-0.5,1.9-1,3.9-1.5,5.8c-2,7.7-5.8,10.1-13.4,7.7c-1.6-0.5-3.3-2.7-3.8-4.5c-2.4-8.3-4.4-16.7-6.5-25.1c-0.4-1.7-1-3.5-2.6-5.3
		c-1.4,5.5-2.8,10.9-4.2,16.4c-1.2,4.8-2.5,9.7-3.5,14.6c-0.7,3.6-3.2,4.5-6.3,4.2c-3.6-0.2-8.2,1.6-9.7-3.7
		c-4.2-15.6-8.4-31.2-12.3-46.8c-0.3-1.2,1.4-4,2.4-4.1c3.3-0.3,7.7-1.9,8.9,3.5c1.9,8.6,3.9,17.2,5.8,25.8c0.9,4,1.9,7.9,4,12
		c1.3-5.2,2.7-10.4,3.9-15.7c1.6-6.6,3.4-13.2,4.6-19.9c0.8-4.4,2.8-6.1,7.4-6.1c4.6-0.1,6,2.1,6.9,6c2.5,10.9,5.3,21.7,8,32.5
		c0.3,1,0.8,2,1.3,3C323.8,481.2,324.2,481.2,324.5,481.1z"/>
	<path d="M317.8,97c-1,6.1-1.8,12.2-3.2,18.2c-0.8,3.2-2.6,6.1-4,9.1c-5.2,10.8-8,12.4-20.1,11.5c-5.3-0.4-10.6-0.9-15.9-1.3
		c-0.7-0.1-1.4,0.2-2.2,1.2c10,3.3,20.6,1.6,31.9,3.2c-1.9,2.3-2.8,4-4.3,5.2c-3.7,3-7.6,5.9-11.6,8.7c-4.9,3.3-8.5,3-13.3-0.4
		c-2.6-1.8-5.2-3.6-8-5.1c-8.7-4.6-12.7-11.9-12.4-21.6c0.1-4.3,0.4-8.6,0.6-13c0.3-5.9,2.4-8.9,8.2-10c1.8-0.3,4.8,1.3,5.8,2.9
		c2.2,3.5,4.3,3.8,8.2,3.2c6.1-0.9,12.5-1.3,18.6-0.4c5.4,0.8,9.3,0.2,12.5-4.5c1.9-2.8,4.6-5.1,6.9-7.7
		C316.2,96.5,317,96.8,317.8,97z M296.6,113.5c0.2-0.5,0.3-1.1,0.5-1.6c-1.6-0.7-3.3-2-4.9-2c-4.3,0-8.6,0.2-12.9,1
		c-5.9,1-8.6,4.2-8.5,9.3c0.1,4.6,3.5,8.7,8.7,9.5c3.2,0.5,6.6,0.3,9.9,0.3c2.9,0,6.1-0.2,6.1-4.1c0-3.7-2.3-6.3-5.8-6.3
		c-3.5,0-7,1.2-10.5,2.1c-1.7,0.4-3.3,1.1-4.9,1.7c-0.2-0.5-0.4-1-0.5-1.6C279.2,113.5,288.4,114.6,296.6,113.5z"/>
	<path d="M313.7,355c13.4-7.7,16.4-7.6,24.3,0.8c1.4-1.1,2.9-2.4,4.4-3.5c8.7-6.5,19.9-2.4,21.1,8.4c1,9,0.5,18.3,0.4,27.4
		c0,3.6-3.1,3.3-5.6,3.3c-2.6,0.1-4.7-0.5-4.7-3.7c0-5.7,0-11.3,0-17c0-1.2,0-2.3,0-3.5c-0.2-5.4-2.3-8.2-6.1-8.2
		c-3.8,0-8.1,4.3-8.2,8.5c-0.1,6.2-0.1,12.3,0,18.5c0.1,3.8-1.2,5.5-5.2,5.5c-3.7,0-5.4-1.3-5.3-5.3c0.2-6.5,0.2-13,0-19.5
		c-0.1-3.9-1-7.5-6-7.6c-3.8-0.1-8,4.1-8.1,8.1c-0.1,6.3-0.2,12.6,0,19c0.1,3.9-1.5,5.4-5.3,5.4c-3.8,0-5.4-1.4-5.3-5.3
		c0.2-9.8,0-19.6,0.1-29.5c0-2.4-1.1-5.7,2.9-6.4C310.8,349.8,313.6,350.6,313.7,355z"/>
	<path d="M31.1,467.2c0-7.3,0.1-14.6,0-22c-0.1-3.9,1.6-5.5,5.4-5.3c6.6,0.3,13.3,0,19.9,0.8c10.3,1.3,17.5,8.1,18.9,18.4
		c0.8,6,0.7,12.4-0.5,18.3c-2.3,11-11.4,17-24.8,17.5c-4.5,0.2-9-0.1-13.5,0.1c-3.8,0.1-5.4-1.4-5.4-5.3
		C31.2,482.2,31.1,474.7,31.1,467.2z M41.8,467.6C41.8,467.6,41.8,467.6,41.8,467.6c0,4.8,0.1,9.6-0.1,14.5
		c-0.1,3.3,1.2,4.6,4.4,4.2c2.6-0.3,5.4-0.1,7.9-0.8c8.5-2.4,12.3-11.5,10.3-23.7c-1.6-9.3-7.8-13.7-18.5-13.3
		c-3,0.1-4.2,1.2-4.1,4.1C41.9,457.7,41.8,462.7,41.8,467.6z"/>
	<path d="M204.8,363.7c0-7.5,0.1-15-0.1-22.5c-0.1-4.3,2.3-4.9,5.7-4.9c3.3,0,5.5,0.9,5.3,4.8c-0.2,4.3,0.1,8.7,0,13
		c-0.1,2.6,0.7,4,3.7,3.9c4.3-0.2,8.7-0.2,13,0c2.9,0.1,3.8-1.1,3.7-3.8c-0.1-4.3,0.1-8.7-0.1-13c-0.2-4.3,2.4-4.9,5.7-4.9
		c3.2,0,5.5,0.7,5.5,4.7c-0.1,15.1-0.1,30.3,0,45.4c0,4.1-2.1,5.1-5.7,5.1c-3.5,0-5.8-1-5.6-5.1c0.2-4.8-0.1-9.7,0.1-14.5
		c0.1-3.3-1.2-4.4-4.4-4.3c-4,0.2-8,0.2-12,0c-3-0.1-4.2,1-4.1,4c0.2,5-0.1,10,0.1,15c0.1,3.8-2,4.9-5.3,4.9c-3.4,0-5.9-0.6-5.8-4.9
		C204.9,379,204.8,371.3,204.8,363.7z"/>
	<path d="M241.6,35.1c-2-14,1.8-21.3,14.2-26.2c12.4-4.9,25.1-6.8,37.8-0.6c0.4,0.2,0.9,0.5,1.4,0.5c13.1,1.3,15.5,11.1,17,22.4
		c-2-0.2-3.9-0.4-5.7-0.7c-17.1-3.3-34.2-5.7-51.4-0.4C250.6,31.4,246.3,33.3,241.6,35.1z"/>
	<path d="M469.1,461.2c0-5.2,0.2-10.3-0.1-15.5c-0.2-4,1-5.8,5.3-5.8c4.5,0,5.7,1.9,5.7,6c-0.2,9.8-0.2,19.6,0,29.4
		c0.2,8.1,4.8,12.5,12.1,12.1c6.6-0.3,10.4-4.5,10.6-12.1c0.2-9.8,0.2-19.6,0-29.4c0-3.7,0.6-6,5.1-6c4.5,0,5.7,1.9,5.6,6.1
		c-0.2,9.5-0.1,19-0.1,28.4c0,8.2-2.4,15.4-10.3,19c-9,4.1-18.2,4-26.7-1.6c-4.9-3.2-6.9-8.4-7.1-14.2
		C469,472.2,469.2,466.7,469.1,461.2C469.2,461.2,469.1,461.2,469.1,461.2z"/>
	<path d="M413,457.6c1.8-1,2.6-1.4,3.4-1.9c10.8-6.6,21.1-1.4,21.8,11.4c0.4,7.8,0,15.6,0.2,23.5c0.1,4.3-2.6,4.3-5.6,4.4
		c-3.3,0.1-4.9-1.1-4.8-4.7c0.1-6,0.1-12,0-18c-0.1-6.5-2.1-9.6-6.2-9.7c-4.6-0.1-8.7,4.6-8.8,10c0,5.8-0.1,11.7,0,17.5
		c0.1,3.9-1.8,4.8-5.2,4.8c-3.4,0-5.3-0.9-5.3-4.8c0.1-16.1,0.1-32.3-0.1-48.4c0-4.1,2-5.1,5.6-5.1c3.6,0,5.2,1.4,5,5.1
		C412.8,446.7,413,451.6,413,457.6z"/>
	<path d="M29,379.9c2.1,0.8,4.2,1.9,6.3,2.5c2.7,0.7,5.5,1.3,8.3,1.4c3.9,0.2,6.8-1.6,7.9-5.5c1.1-4-1.3-6.3-4.3-8.1
		c-2.7-1.6-5.7-2.7-8.5-4.2c-8.7-4.6-12.1-12.2-9.2-20.3c2.7-7.4,12-12,20.6-10.2c9.2,1.9,10.9,4.2,8.9,12.3
		c-1.2-0.5-2.3-0.9-3.5-1.3c-2-0.8-4-2-6-2.3c-3.7-0.5-7.7-0.8-9.3,3.7c-1.6,4.4,1.3,6.8,4.8,8.6c3.1,1.6,6.3,2.9,9.4,4.6
		c6.5,3.6,9.6,9.1,8.5,16.6c-1.1,7.2-5.4,12.2-12.3,13.5c-5.5,1-11.6,0.7-17.1-0.4C27.4,389.5,26.6,386.7,29,379.9z"/>
	<path d="M476.1,370.2c0.1,16.5-11.5,25.6-27.4,21.3c-2.6-0.7-5.3-2.2-7.3-4.1c-5.8-5.3-7.3-18.6-3.4-27.2
		c3.4-7.6,11.4-11.8,20.7-10.8C470.3,350.5,476,357.4,476.1,370.2z M465.1,370.8c0-9.3-3.7-13.6-10.6-12.7
		c-4.9,0.7-7.6,4.9-7.8,12.3c-0.2,7.7,2.2,12.4,7,13.3c0.5,0.1,1,0.1,1.5,0.1C462,384.2,465.2,379.9,465.1,370.8z"/>
	<path d="M255.8,370.9c0.1-16.5,12.8-25.6,28.5-20.3c2,0.7,4.1,1.7,5.6,3.2c7.4,7.6,7.2,16.8,4.5,26.1c-2.3,7.9-9,12.2-17.9,12.6
		C263,393,255.7,385.4,255.8,370.9z M285,370.5c-0.1-7.4-2.3-11.5-6.9-12.4c-5.7-1.1-10,1.9-11.2,8c-1.8,9.4,1,16.6,6.8,17.6
		c0.3,0.1,0.7,0.1,1,0.1C281.7,384.3,285.1,379.9,285,370.5z"/>
	<path d="M404.8,49.2c7.1-12.1,14-23.8,20.8-35.5c6.3,2.8,24.3,25.5,31.3,39.4c-2,0.1-3.7,0.1-5.3,0.4c-4.5,1-8.9,2.2-13.4,3.1
		c-1.6,0.3-4,0.6-4.8-0.2c-7.5-8.5-16.5-9.8-26.8-6.7C406.3,49.7,406,49.5,404.8,49.2z M418.5,45.1c1,0.6,1.4,1,1.5,0.9
		c6.6-3.8,13.2-7.6,19.8-11.5c0.3-0.2,0.3-1.7-0.1-2.2c-0.6-0.6-1.9-1.2-2.4-1C430.2,34.6,423.4,38.2,418.5,45.1z"/>
	<path d="M136.4,459.3c2.4-1.8,3.8-2.8,5.3-3.8c9.1-6,19.8-1.6,20.9,9.1c0.9,8.9,0.4,17.9,0.5,26.9c0,3.8-3,3.3-5.4,3.4
		c-2.9,0.1-4.9-0.6-4.8-4.1c0.1-6.2,0.1-12.3,0-18.5c-0.1-6.4-2.2-9.6-6.2-9.7c-4.6-0.1-8.7,4.6-8.7,10.1c0,5.8-0.2,11.6,0,17.5
		c0.1,3.8-1.8,4.9-5.2,4.8c-3.3-0.1-5.4-0.7-5.3-4.7c0.2-10,0-20,0.1-29.9c0-2.4-1.2-5.8,2.9-6.3C133.7,453.6,137,453.6,136.4,459.3
		z"/>
	<path d="M159.6,378.4c2.8-8.9,5.2-16.3,7.4-23.8c0.9-3,2.5-4.5,5.7-4.4c4.9,0.1,5.9,1.4,4.4,6.1c-5.1,15-10.1,30-15.2,44.9
		c-1.5,4.5-5.9,6.7-10.2,4.9c-0.9-0.4-2-3-1.5-3.6c5.2-7.7,2.5-15-0.7-22.5c-3.2-7.5-5.8-15.2-8.6-22.9c-0.8-2.2-3.3-5,0.9-6.6
		c4-1.5,7.7-0.1,9.1,3.5c2.3,6.2,4.4,12.6,6.7,18.8C157.9,374.3,158.5,375.6,159.6,378.4z"/>
	<path d="M218.4,477.8c-0.2,10.6,5.3,12.5,22.3,8.8c2.7,4.7,1.8,7-3.2,8.2c-1.3,0.3-2.6,0.4-3.9,0.6c-8.2,1.1-16.5,1.4-22-5.8
		c-6-7.8-5.5-16.9-2.2-25.7c3.3-8.9,12.9-12.9,22.8-10.1c8.1,2.3,13.2,11.1,11.8,20.1c-0.5,3.2-2.6,3.9-5.4,3.9
		C232,477.8,225.4,477.8,218.4,477.8z M233.4,470.8c0.4-6.7-2-10.1-6.8-10.3c-5.3-0.2-8.3,3.5-8.1,10.3
		C223.5,470.8,228.4,470.8,233.4,470.8z"/>
	<path d="M384.6,374.8c-0.2,9.3,2.4,10.3,22.7,8.5c2,5.1,1,7.2-4,8.2c-2.6,0.5-5.3,0.9-7.9,1c-10,0.6-16.9-2.9-20-10
		c-4-8.9-2.1-22.2,4-28.1c5.5-5.4,15.3-6.7,22.3-3c5.8,3.1,9.6,11.6,8.4,19c-0.5,3.2-2.6,3.9-5.4,3.8c-6.3,0-12.6,0.1-18.9,0.1
		C385.5,374.3,385.2,374.6,384.6,374.8z M384.7,367.6c4.3,0,8.2,0,12.2,0c2.8,0,3.3-1.3,2.9-3.8c-0.9-4.7-3.9-7.3-8.2-6.8
		C387.1,357.4,384.6,361.1,384.7,367.6z"/>
	<path d="M106.9,493.2c-5.2,0.8-10.3,2.5-15.3,2.1c-6.1-0.5-9.5-5.1-9.7-10.9c-0.2-5.5,2.7-9.8,8.5-11.5c3.3-1,6.9-1.2,10.3-1.8
		c2-0.3,5.1,1.1,5.1-2.9c0-3.6-0.8-7.4-4.9-7.4c-4-0.1-8,1.5-12,2.4c-1.1,0.3-2.1,0.8-3.1,1.3c-2.9-5-2.3-8.2,2.6-9.4
		c5.4-1.3,11.2-2.1,16.6-1.5c7.9,0.8,10.8,4.8,11,12.9c0.2,7.3,0.2,14.7,0,22c-0.1,2.1-1,5.6-2,5.8
		C111.7,494.8,109,493.6,106.9,493.2z M105.9,481.1c0.5-3.8-2.3-3.3-4.8-3.3c-5.8,0-8.9,2.1-8.7,5.7c0.2,3.5,2.4,4.9,5.6,4.9
		C102.1,488.6,105.9,485.1,105.9,481.1z"/>
	<path d="M103,360.9c-2.7-5.3-2.1-7.9,2.9-9.5c3.4-1.1,7.1-1.9,10.7-2.1c11.9-0.5,16.7,4.3,16.8,16.2c0,6.7,0.2,13.3-0.1,20
		c-0.1,2-1.2,5.3-2.3,5.5c-2.2,0.4-4.7-1-6.9-2.3c-4.7,2.5-9.6,4.8-15.7,3.1c-5.3-1.6-8.6-5.2-9.1-10.6c-0.4-5.1,2.1-9.5,7.2-11.3
		c3.5-1.3,7.4-1.6,11.1-2.3c2.2-0.4,5.4,1.1,5.4-3.1c0-3.9-1.1-7.5-5.5-7.4c-3.8,0.1-7.6,1.6-11.4,2.6C105,360,104,360.5,103,360.9z
		 M118.7,374.2c-6.1,0-9.5,2.2-9.2,5.9c0.3,3.3,2.4,4.9,5.7,4.9c4.3,0,7.8-3.3,7.9-7.1C123.2,374,120.9,374,118.7,374.2z"/>
	<path d="M79.9,34.2c3-7.4,6.2-15.6,9.6-23.6c0.3-0.6,2.4-1.2,3.2-0.8c14.9,6.9,27.2,17.1,37.3,30.1c0.1,0.1-0.1,0.3-0.1,0.4
		C113.5,38.3,97,36.3,79.9,34.2z"/>
	<path d="M393.4,487.2c1.6,6.3,0.5,8.1-5.1,8.7c-8.4,0.9-13.5-3.2-13.9-11.7c-0.3-5.8,0.1-11.7-0.3-17.5c-0.1-1.4-1.9-2.8-2.9-4.2
		c-1.1-1.5-2.9-3-3-4.6c-0.1-1.3,2-2.6,3-4c1-1.3,2.8-2.7,2.8-4c0-3.9,1.2-5.8,5.5-5.7c4,0,5.5,1.7,5,5.5c-0.5,3.7,1.5,4.7,4.7,4.3
		c3.1-0.4,5,0.5,5,4.2c0,3.7-1.8,4.7-5,4.4c-4.2-0.5-5.2,1.6-4.9,5.3c0.3,3.6,0,7.3,0.1,11C384.6,486.6,385.5,487.6,393.4,487.2z"/>
	<path d="M92.6,383.9c1.5,6.2,0.3,8.1-5.7,8.6c-7.9,0.7-12.9-3.2-13.5-11.2c-0.4-5.8-0.2-11.6-0.2-17.5c0-2.4,0.1-4.5-3.3-5
		c-1.2-0.2-2.6-2.7-2.7-4.3c-0.1-1.3,1.4-3.8,2.5-4c3.2-0.4,3.8-2.1,3.6-4.7c-0.4-3.9,1.5-5.2,5.3-5.2c4,0,5.5,1.7,5,5.5
		c-0.4,3.3,1.2,4.5,4.4,4.2c3.3-0.3,5.4,0.4,5.5,4.5c0,4.2-2.5,4.6-5.6,4.3c-3.3-0.3-4.5,1.1-4.3,4.4c0.2,3.5,0,7,0,10.5
		C83.5,383.3,83.7,383.4,92.6,383.9z"/>
	<path d="M547.7,463c-3-0.8-5.9-2.2-8.9-2.3c-2,0-4.1,1.8-6.2,2.8c1.3,1.8,2.2,4.2,3.9,5.4c2.2,1.6,5.2,2.2,7.7,3.5
		c4.8,2.5,6.9,6.5,6.4,11.9c-0.5,5.2-3.4,9.2-8.2,10.1c-5,1-10.5,0.9-15.6,0.2c-4.7-0.7-5.5-3.6-3.4-8.9c2.9,0.9,5.8,2.2,8.8,2.7
		c3.4,0.6,7.1,0.5,8.2-3.6c1-3.9-2.5-4.9-5.2-6.2c-2.4-1.2-5-1.9-7.2-3.3c-7.9-5.1-7.4-16,1.1-20.3c5.2-2.7,10.6-2.6,15.9-0.5
		C548.8,455.9,549.3,457.9,547.7,463z"/>
	<path d="M200.7,465.7c-5.1-2.8-10.1-6.9-15.5-1.6c-3.6,3.5-4,14.7-1.1,19.5c2,3.2,5,4.6,8.5,3.7c2.9-0.7,5.7-2.3,8.5-3.6
		c2,6.7,1,8.9-4.8,11c-11.7,4.3-22.4-1.5-24.1-13.8c-0.7-5.4-0.3-11.4,1.4-16.6c3-9.7,13.8-13.9,23.2-10
		C202,456.5,203.1,459.2,200.7,465.7z"/>
	<path d="M493.9,354.7c3-1.9,5.2-4,7.7-4.8c1.8-0.5,5.3,0.1,6.1,1.4c1.1,1.8,0.5,4.7,0.4,7.2c0,0.4-1.9,0.9-2.9,0.8
		c-5.8,0-10,3.8-10.1,9.7c-0.1,5.8-0.2,11.7,0,17.5c0.2,4.2-1.9,5.1-5.5,5.1c-3.4-0.1-5.2-1.2-5.2-5c0.1-10,0-20,0-30
		c0-2.6-0.7-5.6,3.2-6.2C491,349.8,493.7,350.5,493.9,354.7z"/>
	<path d="M361.2,474.7c0,5.1-0.1,10.3,0.1,15.4c0.2,3.9-1.8,4.9-5.2,4.8c-3.2-0.1-5.5-0.5-5.4-4.6c0.2-10.6,0.1-21.2,0-31.9
		c0-3.9,2.2-4.6,5.4-4.7c3.5-0.1,5.2,1.2,5.1,4.9C361.1,464.1,361.2,469.4,361.2,474.7z"/>
	<path d="M361.9,443.2c0,4.2-2.6,5.5-6.2,5.4c-3.5,0-5.7-1.4-5.6-5.4c0.1-4.1,2.5-5.5,6.2-5.5C359.9,437.8,362,439.3,361.9,443.2z"
		/>
	<path d="M77.7,63.2c0.4-4.2-1.3-9.3,3.2-11.8c2.8-1.5,6.9-0.6,10.4-0.8c0.1,0.6,0.3,1.3,0.4,1.9c-4.3,3.7-8.5,7.5-12.8,11.2
		C78.5,63.5,78.1,63.4,77.7,63.2z"/>
	<path d="M278.7,96.1c6.7-2.4,12.8-3.1,18.9-0.7c0.8,0.3,1.6,1.4,1.6,2.2c0,0.8-0.8,1.8-1.6,2.2C294.8,101.6,282,99.3,278.7,96.1z"
		/>
	<path d="M400.9,114.6c-3.1-0.8-6.3-0.7-7.5-2.2c-1.6-1.8-2.2-5.1-2-7.6c0.1-1.2,3.1-2.1,4.7-3.1c0.7,1.2,1.7,2.4,2.1,3.7
		C399.1,107.7,399.7,110.3,400.9,114.6z"/>
</g>
</svg>
